<svg xmlns="http://www.w3.org/2000/svg" xmlns:xlink="http://www.w3.org/1999/xlink"><symbol id="all-tours" viewBox="0 0 9 14"><g fill="none"><path d="M1.5 13L7.5 7L1.5 1" stroke="#2D383F" stroke-width="2"/></g></symbol><symbol id="arrow" viewBox="0 0 14 9"><g fill="none"><path d="M0.646446 4.85355C0.451184 4.65829 0.451184 4.34171 0.646446 4.14645L3.82843 0.964466C4.02369 0.769204 4.34027 0.769204 4.53553 0.964466C4.7308 1.15973 4.7308 1.47631 4.53553 1.67157L1.70711 4.5L4.53553 7.32843C4.7308 7.52369 4.7308 7.84027 4.53553 8.03553C4.34027 8.2308 4.02369 8.2308 3.82843 8.03553L0.646446 4.85355ZM14 5H1V4H14V5Z" fill="white"/></g></symbol><symbol id="boots" viewBox="0 0 20 18"><g fill="none"><path d="M19.7153 12.2434C20.3367 10.1487 19.8254 7.77108 19.2821 6.12359C19.2785 6.05985 19.2602 5.99807 19.2288 5.94394C19.0442 5.40879 18.8737 4.96921 18.7281 4.65194C18.9961 4.53708 19.1729 4.25909 19.1755 3.94861V0.764494C19.1755 0.342255 18.8576 6.40283e-07 18.4654 6.40283e-07H9.74079C9.54469 -0.000381607 9.38543 0.170435 9.38508 0.381578C9.38508 0.389462 9.3853 0.397346 9.3857 0.405182C9.50643 2.69866 9.35019 4.25441 8.89923 5.35146C8.89026 5.36235 8.88196 5.37386 8.87437 5.38586C8.87304 5.40492 8.87304 5.42413 8.87437 5.44319C8.70224 5.84255 8.46943 6.20812 8.1855 6.52495L8.15354 6.54789C8.15354 6.54789 8.15354 6.54789 8.15354 6.57465C7.73724 7.00205 7.25711 7.35094 6.73318 7.60671C5.82033 8.04271 4.88351 8.41803 3.92796 8.73052L3.74687 8.7955C0.426774 9.98046 -0.00643601 12.1287 0.000665794 13.2066C-0.000221931 13.2219 -0.000221931 13.2372 0.000665794 13.2525V15.9817C0.00119843 16.1146 0.0656917 16.2376 0.171109 16.3066C0.984798 16.8396 1.86311 17.2486 2.78102 17.5222C2.9698 17.5793 3.1659 17.4609 3.21898 17.2577C3.22897 17.2194 3.23336 17.1797 3.23199 17.1399V17.052H3.75397V17.4343C3.75171 17.6236 3.87861 17.7862 4.05225 17.8165C4.36117 17.87 4.6701 17.9121 4.97193 17.9388C5.07082 17.9478 5.16869 17.9117 5.2418 17.8395C5.31486 17.7665 5.35609 17.6639 5.35543 17.5566V17.075H5.87741V17.6178C5.87741 17.8288 6.0364 18 6.2325 18C6.53077 18 6.82905 18 7.14863 17.9541C7.33359 17.9382 7.47589 17.7716 7.47531 17.5719V17.075H7.9973V17.4113C7.99477 17.6224 8.15167 17.7958 8.34777 17.7985C8.36832 17.7988 8.38887 17.7972 8.4092 17.7936C9.06102 17.6861 9.70351 17.5212 10.3302 17.3005L10.3871 17.2737C12.8727 15.7447 14.4493 17.0023 14.5132 17.0559C14.5752 17.1076 14.6513 17.1358 14.7298 17.1361H15.1701C15.3662 17.1361 15.5252 16.965 15.5252 16.7539V16.1079H16.033V16.7462C16.033 16.9573 16.192 17.1285 16.3881 17.1285H17.5315C17.7276 17.1285 17.8866 16.9573 17.8866 16.7462V16.1079H18.4121V16.7462C18.4121 16.9573 18.5711 17.1285 18.7672 17.1285H19.6443C19.8404 17.1285 19.9993 16.9573 19.9993 16.7462V12.6256C20.0028 12.4411 19.8833 12.2803 19.7153 12.2434ZM11.289 0.772139H18.4476V3.93714H11.289V0.772139ZM6.8255 8.39414L6.82905 8.41708C7.12014 8.67146 7.38876 8.95428 7.63155 9.26184C7.56715 9.37714 7.53395 9.50954 7.53568 9.64409C7.53324 10.0473 7.83493 10.3763 8.20946 10.3789C8.58404 10.3815 8.88964 10.0568 8.89208 9.6536C8.89439 9.27374 8.62572 8.95547 8.27427 8.92164C8.04967 8.592 7.79379 8.28835 7.51082 8.01572C7.82814 7.8213 8.12668 7.59338 8.4021 7.33532C8.74649 7.68311 9.06692 8.05743 9.36084 8.4553C9.23732 8.83597 9.42383 9.25233 9.77741 9.38535C10.131 9.51833 10.5178 9.31755 10.6414 8.93693C10.7649 8.55626 10.5784 8.1399 10.2248 8.00688C10.1515 7.97926 10.0742 7.96545 9.99646 7.96602H9.91123C9.59978 7.54393 9.2604 7.14663 8.89567 6.77724C9.06492 6.5529 9.21468 6.31238 9.34309 6.05861C9.89281 6.36665 10.4241 6.71135 10.9339 7.09068C10.9304 7.49811 11.2344 7.83143 11.6129 7.8352C11.9914 7.83897 12.301 7.51172 12.3045 7.1043C12.308 6.69687 12.004 6.36355 11.6255 6.35977C11.5174 6.35868 11.4106 6.38515 11.3138 6.43704C10.7773 6.046 10.2187 5.69113 9.64137 5.37439C10.0284 4.26587 10.1953 2.79422 10.1172 0.787429H10.5824V3.95243C10.5824 4.37467 10.9003 4.71693 11.2925 4.71693H17.9469C18.0392 4.91952 18.1955 5.27118 18.3659 5.72988H18.2203C16.0632 5.74665 14.3271 7.64269 14.3427 9.96484C14.3515 11.2844 14.9353 12.5229 15.9194 13.3098C13.0467 14.124 8.72523 15.0911 5.08911 14.8388C5.76023 11.9529 4.95773 10.1754 4.43574 9.39563C5.24859 9.10861 6.04634 8.77428 6.8255 8.39414ZM3.72201 9.61351C4.10551 10.099 5.10686 11.7312 4.37183 14.7318C3.09235 14.6235 1.84967 14.2193 0.728601 13.5468C0.715862 13.4595 0.707562 13.3714 0.703744 13.2831V13.2563C0.675337 12.4421 0.959409 10.68 3.72201 9.61351ZM19.1223 16.364V15.7256C19.1223 15.5145 18.9633 15.3434 18.7672 15.3434H17.535C17.3389 15.3434 17.1799 15.5145 17.1799 15.7256V16.364H16.7432V15.7256C16.7432 15.5145 16.5842 15.3434 16.3881 15.3434H15.163C14.9669 15.3434 14.8079 15.5145 14.8079 15.7256V16.3487C14.325 16.0238 12.5602 15.0796 10.0568 16.5857C9.61145 16.7439 9.1572 16.8716 8.69683 16.9679V16.7042C8.69683 16.4931 8.53783 16.3219 8.34173 16.3219H7.11667C6.92058 16.3219 6.76158 16.4931 6.76158 16.7042V17.2279H6.58049V16.6927C6.58049 16.4816 6.4215 16.3105 6.2254 16.3105H4.99323C4.79714 16.3105 4.63814 16.4816 4.63814 16.6927V17.1476L4.45705 17.1208V16.6927C4.45705 16.4816 4.29806 16.3105 4.10196 16.3105H2.86979C2.68919 16.3091 2.53637 16.4538 2.5147 16.6468C1.88446 16.4235 1.27757 16.1301 0.703744 15.7715V14.4031C2.25194 15.286 4.25465 15.6186 6.38519 15.6186C12.0453 15.6186 18.5222 13.2869 19.2856 13.0079L19.2892 16.364H19.1223ZM18.9483 12.3313C18.6465 12.4383 17.9043 12.7135 16.8781 13.0079C15.2894 12.1801 14.6248 10.1228 15.3937 8.41254C15.9197 7.24267 17.0132 6.49175 18.2203 6.47144C18.3603 6.46934 18.5003 6.47698 18.6394 6.49437L18.6429 6.50584C19.1649 8.12657 19.6336 10.4392 18.9483 12.3313Z" fill="#0266C1"/><path d="M12.6564 1.23469C12.0857 1.23469 11.6231 1.73271 11.6231 2.34703C11.625 2.96049 12.0865 3.45727 12.6564 3.45937C13.227 3.45937 13.6897 2.96135 13.6897 2.34703C13.6897 1.73271 13.2271 1.23469 12.6564 1.23469ZM12.6564 2.69487C12.4779 2.69487 12.3332 2.53916 12.3332 2.34703C12.3332 2.1549 12.4779 1.99918 12.6564 1.99918C12.8348 1.99918 12.9795 2.1549 12.9795 2.34703C12.9795 2.53916 12.8348 2.69487 12.6564 2.69487Z" fill="#0266C1"/></g></symbol><symbol id="close" viewBox="0 0 20 20"><g fill="none"><path d="M1 1L10 10M19 19L10 10M10 10L19 1L1 19" stroke="#2D383F" stroke-width="2"/></g></symbol><symbol id="crown" viewBox="0 0 22 21"><g fill="none"><path d="M17.6867 20H4.31331M21 7.11028L18.0746 16.8049H3.92539L1 7.11028L6.77168 10.6142L11 2L15.2283 10.6142L21 7.11028Z" stroke="#0266C1"/></g></symbol><symbol id="leaf" viewBox="0 0 22 16"><g fill="none"><path d="M10.6903 13.2442C10.0125 10.3813 8.01953 7.97182 5.27543 6.69773C3.92399 6.07026 2.46282 5.75181 1 5.74238C1.08555 7.77102 1.83429 9.74572 3.17529 11.367C5.06036 13.646 7.9121 14.9803 10.933 14.9998C10.9083 14.4135 10.828 13.8259 10.6903 13.2442ZM10.6903 13.2442C10.1339 10.894 8.69109 8.84935 6.67408 7.48755C6.70814 7.28448 6.74903 7.08183 6.79684 6.87988C7.37026 4.4577 8.88519 2.36004 11 1C13.1147 2.36004 14.6297 4.4577 15.2031 6.87988C15.2509 7.08182 15.2918 7.28447 15.3258 7.48752C13.3088 8.84932 11.8661 10.894 11.3097 13.2442M10.6903 13.2442C10.8279 13.8257 10.9082 14.4131 10.933 14.9992C10.9748 14.9997 11.0166 15 11.0585 15C11.9054 15 12.7394 14.8966 13.5431 14.698C13.5477 14.692 13.5522 14.6859 13.5567 14.6799C12.752 14.8849 11.9162 14.9943 11.067 14.9998M11.3097 13.2442C11.9875 10.3813 13.9805 7.97182 16.7246 6.69773C18.076 6.07026 19.5372 5.75181 21 5.74238C20.9144 7.77102 20.1657 9.74572 18.8247 11.367C16.9396 13.646 14.0879 14.9803 11.067 14.9998M11.3097 13.2442C11.172 13.8259 11.0917 14.4135 11.067 14.9998" stroke="#0266C1" stroke-linecap="round" stroke-linejoin="round"/></g></symbol><symbol id="level" viewBox="0 0 20 22"><g fill="none"><path d="M19 21H15.4V1H19V21Z" stroke="#ffffff" stroke-miterlimit="16" stroke-linecap="round"/><path d="M11.8 21V6.45455H8.2L8.2 21H11.8Z" stroke="#ffffff" stroke-miterlimit="16" stroke-linecap="round"/><path d="M4.6 21V11.9091H1V21H4.6Z" stroke="#ffffff" stroke-miterlimit="16" stroke-linecap="round"/></g></symbol><symbol id="mail" viewBox="0 0 22 16"><g fill="none"><path d="M21 2.55556V13.4444C21 14.3036 20.3604 15 19.5714 15H2.42857C1.63959 15 1 14.3036 1 13.4444V2.55556M21 2.55556C21 1.69645 20.3604 1 19.5714 1H2.42857C1.63959 1 1 1.69645 1 2.55556M21 2.55556L12.8594 10.1534C11.7895 11.152 10.2106 11.152 9.14062 10.1534L1 2.55556" stroke="#2D383F" stroke-linecap="round" stroke-linejoin="round"/></g></symbol><symbol id="map" viewBox="0 0 25 25"><g fill="none"><path d="M24.1704 22.2803V6.70123C24.1823 6.44571 23.9848 6.22897 23.7293 6.2171C23.6748 6.21456 23.6204 6.22168 23.5684 6.23812V6.26127L21.4844 6.91426C21.7026 6.33016 21.8321 5.71665 21.8688 5.09423C21.8688 2.28077 19.588 0 16.7745 0C13.9611 0 11.6803 2.28077 11.6803 5.09423C11.7128 5.68754 11.833 6.27279 12.0369 6.8309L8.59135 5.59902C8.55135 5.5941 8.51094 5.5941 8.47094 5.59902H8.43389C8.37837 5.60001 8.32344 5.61101 8.2718 5.63144L1.12598 8.41011C0.961171 8.47281 0.846262 8.62361 0.82959 8.79913V24.3967C0.830342 24.6525 1.03828 24.8592 1.29409 24.8585C1.35065 24.8583 1.40669 24.8478 1.45942 24.8274L8.44315 22.1229L16.4087 24.9756C16.5048 25.0081 16.6089 25.0081 16.7051 24.9756L23.8463 22.7434C24.0469 22.6806 24.18 22.4904 24.1704 22.2803ZM16.7745 0.926224C19.0765 0.926224 20.9425 2.79228 20.9425 5.09423C20.9425 6.905 18.2241 11.9066 16.7745 14.3565C15.325 11.8881 12.6065 6.88184 12.6065 5.09423C12.6065 2.79228 14.4726 0.926224 16.7745 0.926224ZM23.2581 21.9608L17.0246 23.9105V20.3769C17.0246 20.1212 16.8173 19.9138 16.5615 19.9138C16.3058 19.9138 16.0984 20.1212 16.0984 20.3769V23.8781L8.90163 21.3032V18.3392C8.90163 18.0835 8.69427 17.8761 8.43852 17.8761C8.18277 17.8761 7.97541 18.0835 7.97541 18.3392V21.3032L1.75581 23.7252V16.5655L4.04359 15.6393C4.2884 15.5652 4.42675 15.3067 4.35266 15.0618C4.27856 14.817 4.02003 14.6787 3.77521 14.7528C3.74963 14.7605 3.72473 14.7705 3.70083 14.7825L1.75576 15.5652V9.11868L7.97535 6.71049V8.09983C7.97535 8.35558 8.18271 8.56294 8.43846 8.56294C8.69421 8.56294 8.90157 8.35558 8.90157 8.09983V6.69197L12.4536 7.96553C13.5928 10.5687 14.9032 13.0936 16.3762 15.5235C16.5088 15.7422 16.7936 15.8119 17.0123 15.6793C17.076 15.6407 17.1295 15.5872 17.1681 15.5235C18.6339 13.1079 19.9396 10.5985 21.0768 8.01184L23.2442 7.33106L23.258 14.9215L20.9101 15.4911C20.6543 15.5218 20.4718 15.754 20.5025 16.0098C20.5332 16.2655 20.7655 16.448 21.0212 16.4173C21.0581 16.4218 21.0954 16.4218 21.1324 16.4173L23.258 15.8986L23.2581 21.9608Z" fill="#2D383F"/><path d="M16.756 2.40353C15.2699 2.40353 14.0653 3.6082 14.0653 5.09421C14.0653 6.58022 15.2699 7.78489 16.756 7.78489C18.2409 7.78235 19.4441 6.57918 19.4466 5.09421C19.4466 3.6082 18.242 2.40353 16.756 2.40353ZM16.756 6.85867C15.7898 6.84605 15.0125 6.0605 15.01 5.09421H14.9915C14.9915 4.11971 15.7815 3.32976 16.756 3.32976C17.7305 3.32976 18.5204 4.11971 18.5204 5.09421C18.5204 6.06872 17.7305 6.85867 16.756 6.85867Z" fill="#2D383F"/><path d="M10.6985 13.9674V13.9813L8.45704 13.0134C8.34294 12.9659 8.21454 12.9659 8.10044 13.0134L6.20631 13.7776C5.96845 13.8735 5.85336 14.1441 5.94929 14.3819C6.04521 14.6198 6.31578 14.7349 6.55365 14.639L8.26716 13.9489L10.328 14.8196C10.3865 14.8445 10.4496 14.8571 10.5133 14.8566C10.769 14.8587 10.978 14.6531 10.9801 14.3973C10.9816 14.2103 10.8705 14.0407 10.6985 13.9674Z" fill="#2D383F"/><path d="M18.2702 16.616C18.2012 16.3929 17.9769 16.2561 17.747 16.2969L17.7516 16.2598L16.6031 16.5377L14.658 15.6948C14.4227 15.5925 14.149 15.7003 14.0467 15.9356C13.9444 16.171 14.0522 16.4447 14.2875 16.5469L16.3715 17.4732C16.4301 17.4981 16.4932 17.5107 16.5568 17.5102H16.6679L17.9646 17.1953C18.209 17.1197 18.3458 16.8604 18.2702 16.616Z" fill="#2D383F"/></g></symbol><symbol id="menu" viewBox="0 0 22 16"><g fill="none"><path d="M0 0H22V1.83609H0V0Z" fill="#2D383F"/><path d="M0 14.1639H22V16H0V14.1639Z" fill="#2D383F"/><path d="M0 7.08195H14.08V8.91805H0V7.08195Z" fill="#2D383F"/></g></symbol><symbol id="moon" viewBox="0 0 20 20"><g fill="none"><path d="M19.5272 11.382C19.3228 11.3307 19.1183 11.382 18.9394 11.5103C18.2748 12.0745 17.5081 12.5362 16.6646 12.844C15.8723 13.1518 15.0033 13.3057 14.0831 13.3057C12.0128 13.3057 10.1215 12.4593 8.76681 11.0999C7.41217 9.74052 6.56872 7.84251 6.56872 5.76497C6.56872 4.89291 6.72207 4.0465 6.97767 3.27704C7.25882 2.45628 7.66777 1.71247 8.20451 1.07125C8.43454 0.789119 8.38343 0.378739 8.10227 0.147901C7.92336 0.0196573 7.71888 -0.0316401 7.51441 0.0196573C5.34188 0.609578 3.4505 1.91766 2.09586 3.66177C0.792336 5.38024 0 7.50908 0 9.84311C0 12.6388 1.12461 15.178 2.96487 17.0247C4.80513 18.8715 7.3355 20 10.1215 20C12.4729 20 14.6454 19.1792 16.3835 17.8199C18.147 16.4348 19.425 14.4599 19.9618 12.2028C20.0895 11.8181 19.8851 11.459 19.5272 11.382ZM15.6167 16.7426C14.1342 17.9225 12.2429 18.6406 10.1726 18.6406C7.74444 18.6406 5.54635 17.6403 3.96168 16.0501C2.37701 14.4599 1.3802 12.2541 1.3802 9.81746C1.3802 7.79122 2.04474 5.94451 3.1949 4.45688C3.98724 3.43094 4.98405 2.58453 6.13421 1.99461C6.00642 2.27674 5.87862 2.55888 5.77638 2.86666C5.44411 3.79002 5.29076 4.76467 5.29076 5.79062C5.29076 8.22724 6.28757 10.4587 7.87224 12.0489C9.45691 13.6391 11.6806 14.6394 14.1087 14.6394C15.1822 14.6394 16.2045 14.4599 17.1502 14.1008C17.4825 13.9726 17.8148 13.8443 18.1215 13.6904C17.5081 14.8703 16.6646 15.9219 15.6167 16.7426Z" fill="#ffffff"/></g></symbol><symbol id="mountains" viewBox="0 0 25 25"><g fill="none"><path d="M23.4153 24.1883L15.5583 5.90781C15.4551 5.66541 15.1749 5.55265 14.9325 5.65587C14.8192 5.70417 14.7289 5.79445 14.6806 5.90781L9.93871 16.9181L7.00963 10.1583C6.90634 9.91592 6.62614 9.80316 6.3838 9.90638C6.27044 9.95468 6.18016 10.045 6.13186 10.1583L3.37928 16.5174L0.0399368 24.1836C-0.0654315 24.425 0.0448861 24.7062 0.286333 24.8116C0.347037 24.8381 0.412572 24.8517 0.478822 24.8514H22.9765C23.2399 24.8512 23.4533 24.6375 23.4531 24.374C23.4531 24.3102 23.4402 24.2471 23.4153 24.1883ZM15.1147 7.29603L18.2107 14.4947H17.1231L15.1576 12.3241C14.9804 12.1291 14.6787 12.1148 14.4837 12.292C14.4531 12.3198 14.4263 12.3514 14.4039 12.3861L13.6692 13.5215H12.4384L15.1147 7.29603ZM6.57074 11.5322L9.018 17.19H7.68226C7.52007 17.1903 7.36914 17.273 7.28154 17.4095L6.80449 18.168L5.57371 16.4315C5.48474 16.3032 5.33864 16.2266 5.18253 16.2264H4.54805L6.57074 11.5322ZM1.22779 23.8973L4.13302 17.1805H4.93446L6.42285 19.3034C6.51182 19.4316 6.65792 19.5082 6.81403 19.5085C6.97283 19.505 7.11947 19.4227 7.20522 19.289L7.93987 18.1537H9.42826L11.9137 23.8783L1.22779 23.8973ZM12.9584 23.8973L10.4587 18.125L12.0282 14.4756H13.9364C14.0986 14.4753 14.2495 14.3927 14.3371 14.2562L14.8666 13.4404L16.5554 15.3057C16.6455 15.4056 16.7738 15.4628 16.9084 15.4631H18.6162L22.2466 23.9116L12.9584 23.8973Z" fill="#2D383F"/><path d="M7.61068 2.08188C7.16065 0.922592 5.85598 0.347688 4.69675 0.797784C3.83359 1.13285 3.26357 1.9622 3.26 2.88809C3.25529 2.97074 3.25529 3.05351 3.26 3.13616C2.13213 3.65996 1.6425 4.99892 2.1663 6.12678C2.52904 6.90777 3.30543 7.4135 4.16639 7.4296L4.19024 7.44869H7.52959C9.0116 7.47111 10.2311 6.28785 10.2535 4.80583C10.2759 3.32382 9.0927 2.1043 7.61068 2.08188ZM7.55821 6.5089H4.21886C3.50484 6.58266 2.86625 6.06369 2.79249 5.34967C2.71872 4.63564 3.23769 3.99706 3.95172 3.92329C4.20998 3.87123 4.37719 3.61971 4.32513 3.36139C4.32113 3.34165 4.31594 3.32215 4.3095 3.30313C4.26293 3.16967 4.23878 3.02942 4.23795 2.88809C4.23389 2.17145 4.81148 1.58724 5.52813 1.58313C6.16207 1.57949 6.70578 2.03447 6.81401 2.65911C6.85784 2.90992 7.09094 3.08207 7.34354 3.05029C7.41504 3.04558 7.48671 3.04558 7.55821 3.05029C8.51326 3.05029 9.28751 3.82454 9.28751 4.77959C9.28751 5.73465 8.51326 6.5089 7.55821 6.5089Z" fill="#2D383F"/><path d="M23.6967 2.63997C23.7014 2.55733 23.7014 2.47456 23.6967 2.39191C23.6919 1.14836 22.6799 0.144172 21.4363 0.148943C20.5172 0.152521 19.6938 0.714604 19.354 1.56727C17.8795 1.59816 16.7047 2.81392 16.727 4.29057C16.7494 5.77258 17.9689 6.95584 19.451 6.93342H22.7903C24.0337 6.91016 25.0228 5.88343 24.9995 4.64006C24.9834 3.77911 24.4777 3.00271 23.6967 2.63997ZM24.056 4.94758C23.9297 5.54008 23.4103 5.96632 22.8046 5.97455H19.4653C18.5102 5.97455 17.736 5.2003 17.736 4.24525C17.736 3.29019 18.5102 2.51594 19.4653 2.51594C19.5368 2.51123 19.6084 2.51123 19.6799 2.51594C19.9213 2.54099 20.143 2.38088 20.1952 2.14384C20.3147 1.43727 20.9844 0.961417 21.6911 1.08098C22.3976 1.20054 22.8735 1.87026 22.7539 2.57688C22.7418 2.64862 22.7236 2.71922 22.6997 2.78792C22.6154 3.03754 22.7495 3.3082 22.9992 3.39246C23.0183 3.3989 23.0377 3.40415 23.0574 3.40808C23.7584 3.5574 24.2054 4.24668 24.056 4.94758Z" fill="#2D383F"/></g></symbol><symbol id="ok" viewBox="0 0 9 16"><g fill="none"><path d="M4.5 2.42035C5.41587 2.42035 6.1607 3.18736 6.1607 4.1305C6.1607 5.0708 5.41587 5.83781 4.5 5.83781C3.58413 5.83781 2.8393 5.0708 2.8393 4.1305C2.8393 3.18736 3.58413 2.42035 4.5 2.42035ZM4.5 8.25816C6.71243 8.25816 8.51106 6.40597 8.51106 4.1305C8.51106 1.85219 6.71243 0 4.5 0C2.28757 0 0.491701 1.85219 0.491701 4.1305C0.491701 6.40597 2.28757 8.25816 4.5 8.25816ZM6.12208 11.6273C6.93863 11.4342 7.72485 11.1018 8.45037 10.6331C8.99934 10.278 9.16486 9.53083 8.82003 8.96551C8.47244 8.39735 7.74967 8.22691 7.19795 8.58485C5.55656 9.6473 3.44344 9.6473 1.79929 8.58485C1.25033 8.22691 0.524805 8.39735 0.179975 8.96551C-0.164855 9.53083 0.000663014 10.278 0.549632 10.6331C1.27515 11.1018 2.06136 11.4342 2.87792 11.6273L0.63515 13.934C0.177216 14.4056 0.177216 15.1726 0.63515 15.6442C0.866875 15.88 1.16481 15.9993 1.4655 15.9993C1.76619 15.9993 2.06688 15.88 2.29861 15.6442L4.5 13.3772L6.70415 15.6442C7.16208 16.1186 7.90416 16.1186 8.36485 15.6442C8.82278 15.1726 8.82278 14.4056 8.36485 13.934L6.12208 11.6273Z" fill="#2D383F"/></g></symbol><symbol id="path" viewBox="0 0 22 22"><g fill="none"><path d="M18.1429 8.76743H12.7857C11.1091 8.76743 9.75 10.1366 9.75 11.8256C9.75 13.5145 11.1091 14.8837 12.7857 14.8837H15.1071C16.7837 14.8837 18.1429 16.2529 18.1429 17.9419C18.1429 19.6308 16.7837 21 15.1071 21H3.85714M6.71428 15.9302C6.71428 14.3406 5.4351 13.0519 3.85714 13.0519C2.27919 13.0519 1 14.3406 1 15.9302V16.0384C1 16.6695 1.1985 17.2845 1.56701 17.7949L3.8515 20.9593C3.85429 20.9632 3.86 20.9632 3.86279 20.9593L6.14727 17.7949C6.51578 17.2845 6.71428 16.6695 6.71428 16.0384V15.9302ZM4.40947 14.7454L4.42662 14.7535C4.77242 14.9183 5.02453 15.2332 5.11112 15.6086C5.19868 15.9881 5.10458 16.3904 4.86077 16.6929C4.61964 16.9921 4.25485 17.1691 3.87232 17.1691H3.84197C3.45944 17.1691 3.09464 16.9921 2.85352 16.6929C2.60971 16.3904 2.51561 15.9881 2.60316 15.6086C2.68975 15.2332 2.94186 14.9183 3.28767 14.7535L3.30482 14.7454C3.65446 14.5788 4.05982 14.5788 4.40947 14.7454ZM21 3.89849C21 2.30887 19.7208 1 18.1429 1C16.5649 1 15.2857 2.30887 15.2857 3.89849C15.2857 4.52339 15.4857 5.1384 15.8561 5.63972L18.1372 8.72766C18.14 8.73147 18.1457 8.73147 18.1485 8.72766L20.4297 5.63972C20.8 5.1384 21 4.52339 21 3.89849ZM18.6875 2.65136L18.7262 2.66941C19.0631 2.82627 19.3099 3.13018 19.3957 3.4939C19.4838 3.86694 19.3925 4.25998 19.1492 4.55491L19.137 4.56971C18.8999 4.85725 18.548 5.02359 18.1769 5.02359H18.1088C17.7377 5.02359 17.3858 4.85725 17.1487 4.56971L17.1365 4.55491C16.8932 4.25998 16.8019 3.86694 16.89 3.4939C16.9758 3.13018 17.2226 2.82627 17.5595 2.66941L17.5983 2.65136C17.9438 2.49048 18.342 2.49048 18.6875 2.65136Z" stroke="#0266C1" stroke-linecap="round"/></g></symbol><symbol id="phone" viewBox="0 0 22 22"><g fill="none"><path d="M19.3236 20.0443C19.0034 20.6753 18.3438 21.0672 17.6426 20.9904C17.3412 20.9575 17.0402 20.9171 16.7396 20.8693C12.8229 20.2465 9.20304 18.3949 6.39895 15.5797C3.59486 12.7646 1.75046 9.1305 1.1301 5.19831C1.08254 4.89683 1.04236 4.59477 1.00952 4.29242C0.933062 3.58844 1.32346 2.92622 1.95195 2.60473L4.70244 1.19777C5.76693 0.653244 7.05498 1.28842 7.42933 2.42743C7.65638 3.11826 7.92452 3.79805 8.23342 4.4631C8.38821 4.79636 8.5524 5.12412 8.72567 5.44606C9.13588 6.20824 8.85917 7.18583 8.0736 7.54431C6.93267 8.06496 6.66094 9.56938 7.54713 10.4591L11.4995 14.427C12.3857 15.3167 13.8842 15.0439 14.4028 13.8985C14.7796 13.0663 15.8009 12.765 16.6118 13.1807C16.8084 13.2814 17.0071 13.3788 17.2078 13.4728C17.9681 13.8287 18.7478 14.1308 19.5413 14.3784C20.6964 14.7389 21.3521 16.0475 20.8029 17.1296L19.3236 20.0443Z" stroke="#2D383F" stroke-linecap="round" stroke-linejoin="round"/></g></symbol><symbol id="pin-filled" viewBox="0 0 16 20"><g fill="none"><path fill-rule="evenodd" clip-rule="evenodd" d="M8 0C12.1421 0 15.5 3.19996 15.5 7.14732V7.57782C15.5 9.15722 14.9822 10.6971 14.0189 11.9823L8.01482 19.9927C8.00756 20.0024 7.99245 20.0024 7.98519 19.9927L1.98114 11.9823C1.01784 10.6971 0.5 9.15722 0.5 7.57782V7.14732C0.5 3.19996 3.85786 0 8 0ZM6.66733 4.76428C5.82517 5.14804 5.21352 5.87379 5.00552 6.73609C4.79753 7.59839 5.01582 8.50338 5.59862 9.19489C6.18141 9.8864 7.06527 10.2892 8 10.2892C8.93473 10.2892 9.81859 9.8864 10.4014 9.19489C10.9842 8.50338 11.2025 7.59839 10.9945 6.73609C10.7865 5.87379 10.1748 5.14804 9.33267 4.76428C8.49051 4.38052 7.50949 4.38052 6.66733 4.76428Z" fill="#0266C1"/></g></symbol><symbol id="pin-stroked" viewBox="0 0 16 22"><g fill="none"><path d="M15.5 8.14732C15.5 4.19996 12.1421 1 8 1C3.85786 1 0.5 4.19996 0.5 8.14732V8.57782C0.5 10.1572 1.01784 11.6971 1.98114 12.9823L7.98518 20.9927C7.99245 21.0024 8.00756 21.0024 8.01482 20.9927L14.0189 12.9823C14.9822 11.6971 15.5 10.1572 15.5 8.57782V8.14732Z" stroke="#2D383F" stroke-linecap="round" stroke-linejoin="round"/><path d="M6.53407 5.28903C7.46044 4.86389 8.53956 4.86389 9.46593 5.28903C10.3923 5.71417 11.0651 6.51818 11.2939 7.47347C11.5227 8.42875 11.2826 9.43134 10.6415 10.1974C10.0004 10.9635 9.0282 11.4097 8 11.4097C6.9718 11.4097 5.99955 10.9635 5.35848 10.1974C4.7174 9.43134 4.47728 8.42875 4.70608 7.47347C4.93487 6.51818 5.60769 5.71417 6.53407 5.28903Z" stroke="#2D383F" stroke-linecap="round" stroke-linejoin="round"/></g></symbol><symbol id="reddit" viewBox="0 0 14 15"><g fill="none"><path d="M8.36171 0C7.91277 0 7.49149 0.244007 7.22128 0.59589C6.95106 0.947774 6.80213 1.37671 6.69362 1.82877C6.52128 2.55565 6.46808 3.36216 6.45532 4.08904C5.19361 4.17894 4.05105 4.57962 3.10211 5.19863C2.717 4.85188 2.25317 4.65925 1.80849 4.66438C1.3021 4.66952 0.821252 4.90325 0.463803 5.38356C-0.219178 6.30051 -0.140455 7.80051 0.651038 8.69178C0.602102 8.96661 0.565931 9.24914 0.565931 9.53425C0.565931 12.5548 3.44679 15 7 15C10.5532 15 13.4341 12.5522 13.4341 9.53425C13.4341 9.24914 13.3979 8.96661 13.349 8.69178C14.1405 7.80051 14.2192 6.30051 13.5362 5.38356C13.1788 4.90325 12.6979 4.66952 12.1915 4.66438C11.7468 4.65925 11.283 4.85188 10.8979 5.19863C9.9532 4.58219 8.81703 4.18151 7.5617 4.08904C7.57873 3.41866 7.62341 2.7226 7.74894 2.19863C7.82766 1.86986 7.92128 1.63099 8.02128 1.5C8.12128 1.36901 8.19362 1.31507 8.36171 1.31507C8.72554 1.31507 8.77235 1.44092 8.9915 1.74658C9.10214 1.90068 9.2298 2.09332 9.43405 2.28082C9.63831 2.46832 9.94044 2.63014 10.2681 2.63014V1.31507C10.1766 1.31507 10.1596 1.3125 10.0979 1.25342C10.0362 1.19435 9.95108 1.05822 9.82554 0.883562C9.57448 0.531678 9.08724 0 8.36171 0ZM11.9021 0.123288C11.0553 0.123288 10.3702 0.950343 10.3702 1.9726C10.3702 2.99486 11.0553 3.82192 11.9021 3.82192C12.749 3.82192 13.4341 2.99486 13.4341 1.9726C13.4341 0.950343 12.749 0.123288 11.9021 0.123288ZM11.9021 0.780822C12.4468 0.780822 12.8894 1.31507 12.8894 1.9726C12.8894 2.63014 12.4468 3.16438 11.9021 3.16438C11.3575 3.16438 10.9149 2.63014 10.9149 1.9726C10.9149 1.31507 11.3575 0.780822 11.9021 0.780822ZM7 5.11644C10.0149 5.11644 12.566 7.14298 12.566 9.53425C12.566 11.9281 10.0149 13.9521 7 13.9521C3.98509 13.9521 1.43402 11.9281 1.43402 9.53425C1.43402 7.14298 3.98509 5.11644 7 5.11644ZM1.82551 5.71233C1.97658 5.7149 2.13402 5.75599 2.28509 5.83562C1.73828 6.33647 1.30423 6.91182 1.00849 7.56164C0.80423 7.05308 0.85955 6.41866 1.11061 6.08219C1.29359 5.83562 1.54679 5.70976 1.82551 5.71233ZM12.1745 5.71233C12.4532 5.70976 12.7064 5.83562 12.8894 6.08219C13.1405 6.41866 13.1958 7.05308 12.9915 7.56164C12.6958 6.91182 12.2617 6.33647 11.7149 5.83562C11.866 5.75599 12.0234 5.7149 12.1745 5.71233ZM4.82127 7.35616C4.27658 7.35616 3.83403 7.89041 3.83403 8.54795C3.83403 9.20548 4.27658 9.73973 4.82127 9.73973C5.36595 9.73973 5.80851 9.20548 5.80851 8.54795C5.80851 7.89041 5.36595 7.35616 4.82127 7.35616ZM9.17873 7.35616C8.63405 7.35616 8.19149 7.89041 8.19149 8.54795C8.19149 9.20548 8.63405 9.73973 9.17873 9.73973C9.72342 9.73973 10.166 9.20548 10.166 8.54795C10.166 7.89041 9.72342 7.35616 9.17873 7.35616ZM4.29361 11.4041C4.64042 12.2697 5.71276 13.1096 7 13.1096C8.28724 13.1096 9.37661 12.2697 9.72342 11.4041C9.09363 11.8947 8.10001 12.226 7 12.226C5.9 12.226 4.9234 11.8947 4.29361 11.4041Z" fill="#2D383F"/></g></symbol><symbol id="shield" viewBox="0 0 20 22"><g fill="none"><path d="M7.75001 10.912L10 13.1562L13.9375 9.22882M9.99997 1C7.67869 2.18698 5.09257 2.81813 2.44902 2.81813C2.09212 2.81813 1.73627 2.80662 1.38197 2.7838C0.924632 4.87029 0.87403 7.04136 1.25148 9.17646C1.92717 12.9986 3.93142 16.4612 6.91222 18.9559C7.86795 19.7558 8.90448 20.4398 10 21C11.0955 20.4398 12.132 19.7558 13.0878 18.9559C16.0686 16.4612 18.0728 12.9986 18.7485 9.17647C19.126 7.04136 19.0754 4.87029 18.618 2.7838C18.2637 2.80662 17.9078 2.81813 17.5509 2.81813C14.9074 2.81813 12.3212 2.18698 9.99997 1Z" stroke="#0266C1"/></g></symbol><symbol id="star-filled" viewBox="0 0 16 14"><g fill="none"><path d="M7.63441 10.6911L12.3525 13.3L11.1042 8.37971L15.2688 5.0708L9.77893 4.63889L7.63441 0L5.48992 4.63889L0 5.0708L4.16458 8.37971L2.91634 13.3L7.63441 10.6911Z" fill="white"/></g></symbol><symbol id="star-stroked" viewBox="0 0 16 14"><g fill="none"><path fill-rule="evenodd" clip-rule="evenodd" d="M7.63441 9.54841L10.8153 11.3073L9.97596 7.99895L12.6574 5.86844L9.11688 5.58989L7.63441 2.38311L6.15197 5.58989L2.61141 5.86844L5.29286 7.99895L4.45356 11.3073L7.63441 9.54841ZM2.91634 13.3L4.16458 8.37971L0 5.0708L5.48992 4.63889L7.63441 0L9.77893 4.63889L15.2688 5.0708L11.1042 8.37971L12.3525 13.3L7.63441 10.6911L2.91634 13.3Z" fill="white"/></g></symbol><symbol id="sun" viewBox="0 0 20 20"><g fill="none"><path d="M13.545 6.45505C12.6455 5.55558 11.3757 4.97357 10 4.97357C8.62433 4.97357 7.35449 5.52912 6.45502 6.45505C5.55555 7.35451 4.97354 8.62435 4.97354 10C4.97354 11.3757 5.55555 12.6455 6.45502 13.545C7.35449 14.4444 8.62433 15.0265 10 15.0265C11.3757 15.0265 12.6455 14.4709 13.545 13.545C14.4444 12.6455 15.0265 11.3757 15.0265 10C15.0265 8.62435 14.4709 7.35451 13.545 6.45505ZM12.5926 12.5926C11.9312 13.254 11.0053 13.6508 10 13.6508C8.9947 13.6508 8.06878 13.254 7.4074 12.5926C6.74603 11.9312 6.3492 11.0053 6.3492 10C6.3492 8.99472 6.74603 8.0688 7.4074 7.40742C8.06878 6.74605 8.9947 6.34923 10 6.34923C11.0053 6.34923 11.9312 6.74605 12.5926 7.40742C13.254 8.0688 13.6508 8.99472 13.6508 10C13.6508 11.0053 13.254 11.9312 12.5926 12.5926Z" fill="#2D383F"/><path d="M19.3122 9.3122H17.2751C16.9048 9.3122 16.5873 9.62966 16.5873 10C16.5873 10.3704 16.9048 10.6879 17.2751 10.6879H19.3122C19.6825 10.6879 20 10.3704 20 10C20 9.62966 19.6825 9.3122 19.3122 9.3122Z" fill="#2D383F"/><path d="M9.99999 16.5873C9.62962 16.5873 9.31216 16.9048 9.31216 17.2751V19.3122C9.31216 19.6825 9.62962 20 9.99999 20C10.3704 20 10.6878 19.6825 10.6878 19.3122V17.2751C10.6878 16.9048 10.3704 16.5873 9.99999 16.5873Z" fill="#2D383F"/><path d="M17.0635 16.1111L15.6085 14.656C15.3704 14.3915 14.9207 14.3915 14.6561 14.656C14.3916 14.9206 14.3916 15.3439 14.6561 15.6084L16.1111 17.0634C16.3757 17.328 16.799 17.328 17.0635 17.0634C17.3281 16.7989 17.3281 16.3756 17.0635 16.1111Z" fill="#2D383F"/><path d="M9.99999 0C9.62962 0 9.31216 0.317459 9.31216 0.687829V2.72486C9.31216 3.09523 9.62962 3.41269 9.99999 3.41269C10.3704 3.41269 10.6878 3.09523 10.6878 2.72486V0.687829C10.6878 0.317459 10.3704 0 9.99999 0Z" fill="#2D383F"/><path d="M17.0899 2.93653C16.8254 2.67198 16.4021 2.67198 16.1376 2.93653L14.6825 4.39155C14.418 4.6561 14.418 5.07938 14.6825 5.34393C14.9206 5.60848 15.3704 5.60848 15.6349 5.34393L17.0899 3.88891C17.3545 3.62436 17.3545 3.20108 17.0899 2.93653Z" fill="#2D383F"/><path d="M2.72487 9.3122H0.687831C0.31746 9.3122 0 9.62966 0 10C0 10.3704 0.291005 10.6879 0.687831 10.6879H2.72487C3.09524 10.6879 3.4127 10.3704 3.4127 10C3.4127 9.62966 3.09524 9.3122 2.72487 9.3122Z" fill="#2D383F"/><path d="M5.31746 14.656C5.07937 14.3915 4.62963 14.3915 4.36508 14.656L2.91005 16.1111C2.6455 16.3756 2.6455 16.7989 2.91005 17.0634C3.1746 17.328 3.59788 17.328 3.86243 17.0634L5.31746 15.6084C5.58201 15.3439 5.58201 14.9206 5.31746 14.656Z" fill="#2D383F"/><path d="M5.31746 4.39155L3.86243 2.93653C3.59788 2.67198 3.1746 2.67198 2.91005 2.93653C2.6455 3.20108 2.6455 3.62436 2.91005 3.88891L4.36508 5.34393C4.62963 5.60848 5.05291 5.60848 5.31746 5.34393C5.58201 5.07938 5.58201 4.6561 5.31746 4.39155Z" fill="#2D383F"/></g></symbol><symbol id="trees" viewBox="0 0 26 25"><g fill="none"><path d="M25.2588 18.0832L20.3519 12.4696H22.7226C22.9994 12.4689 23.2233 12.244 23.2227 11.9672C23.2224 11.857 23.1858 11.7499 23.1186 11.6626L19.179 6.48504H21.1839C21.4607 6.48466 21.6848 6.25999 21.6845 5.98319C21.6844 5.86165 21.64 5.7443 21.5598 5.65302L16.7381 0.169703C16.555 -0.0379264 16.2383 -0.0577872 16.0306 0.125345C16.0149 0.139191 16.0001 0.15404 15.9863 0.169703L11.1596 5.648C10.9741 5.8535 10.9903 6.17046 11.1958 6.35591C11.2889 6.43993 11.41 6.48598 11.5355 6.48504H13.5654L12.3525 8.06888L9.10457 4.37491C8.9215 4.16728 8.60473 4.14742 8.3971 4.33055C8.38138 4.3444 8.36659 4.35925 8.35275 4.37491L4.22773 9.06129C4.04504 9.26923 4.06553 9.58594 4.27347 9.76863C4.36475 9.84883 4.4821 9.89312 4.60364 9.89331H6.1925L2.89449 14.2088C2.73116 14.4323 2.77984 14.7458 3.00332 14.9092C3.08677 14.9703 3.18708 15.004 3.29046 15.0057H5.14496L1.07007 19.6921C0.890129 19.9024 0.914751 20.2188 1.12514 20.3988C1.2146 20.4754 1.32825 20.518 1.44598 20.5191H6.98944V24.0276C6.98944 24.5646 7.42481 25 7.9618 25H9.49051C10.0275 25.0027 10.4651 24.5697 10.4679 24.0326C10.4679 24.0309 10.4679 24.0293 10.4679 24.0276V20.5191H14.628V24.0276C14.628 24.5646 15.0634 25 15.6003 25H17.1291C17.666 25 18.1014 24.5646 18.1014 24.0276V18.9152H24.8829C25.1597 18.9148 25.3838 18.6902 25.3835 18.4134C25.3833 18.2918 25.339 18.1745 25.2588 18.0832ZM9.46545 23.9976L7.99187 24.0276L7.9618 20.5191H9.46545V23.9976ZM14.628 19.5167H2.54866L6.64861 14.8403C6.83418 14.6349 6.81808 14.318 6.61271 14.1324C6.51698 14.046 6.39161 13.9997 6.26267 14.0033H4.30793L7.60593 9.68781C7.77478 9.46847 7.73387 9.15376 7.51452 8.98492C7.42719 8.91769 7.32018 8.8811 7.20997 8.88085H5.70632L8.71362 5.45754L11.7209 8.87083L9.60579 11.6676C9.43694 11.887 9.47785 12.2017 9.6972 12.3705C9.78454 12.4377 9.89154 12.4743 10.0017 12.4746H12.3775L7.4706 18.0882C7.28791 18.2962 7.3084 18.6129 7.51634 18.7955C7.60762 18.8757 7.72497 18.92 7.84652 18.9202H14.628V19.5167ZM17.099 23.9875L15.6304 24.0276L15.6003 18.9152H17.104L17.099 23.9875ZM17.1291 17.9128H8.94919L13.8561 12.2992C14.0388 12.0912 14.0183 11.7745 13.8104 11.5918C13.7191 11.5116 13.6017 11.4673 13.4802 11.4671H11.0192L14.9788 6.28455C15.1449 6.06314 15.1001 5.74894 14.8787 5.58285C14.7933 5.51881 14.6896 5.48367 14.5829 5.4826H12.6632L16.3822 1.26236L20.0812 5.4826H18.1465C17.8697 5.48329 17.6459 5.70821 17.6465 5.98501C17.6467 6.09521 17.6833 6.20222 17.7506 6.28956L21.6851 11.4671H19.2442C18.9674 11.4675 18.7433 11.6922 18.7436 11.969C18.7437 12.0905 18.7881 12.2079 18.8683 12.2992L23.7752 17.9128H17.1291Z" fill="#2D383F"/></g></symbol><symbol id="vk" viewBox="0 0 16 9"><g fill="none"><path d="M15.8574 8.02743C15.8144 7.95645 15.5484 7.38659 14.2683 6.21531C12.9282 4.98883 13.1082 5.18799 14.7223 3.06728C15.7054 1.77572 16.0984 0.986988 15.9754 0.649804C15.8584 0.328395 15.1353 0.413184 15.1353 0.413184L12.7312 0.426986C12.7312 0.426986 12.5531 0.403324 12.4201 0.481212C12.2911 0.558114 12.2081 0.735579 12.2081 0.735579C12.2081 0.735579 11.8271 1.7353 11.3191 2.58516C10.248 4.37855 9.81894 4.4732 9.64393 4.36179C9.2369 4.10249 9.33891 3.31869 9.33891 2.76263C9.33891 1.02445 9.60593 0.299803 8.81787 0.112478C8.55585 0.0503654 8.36384 0.00895679 7.69479 0.00205536C6.83672 -0.00681791 6.10967 0.00501311 5.69864 0.203183C5.42462 0.335296 5.21361 0.630086 5.34262 0.646846C5.50163 0.667551 5.86165 0.74248 6.05267 0.998819C6.29969 1.3291 6.29069 2.07248 6.29069 2.07248C6.29069 2.07248 6.4327 4.11827 5.95966 4.37263C5.63464 4.54714 5.1896 4.19122 4.23453 2.56347C3.7455 1.73037 3.37547 0.808537 3.37547 0.808537C3.37547 0.808537 3.30447 0.636987 3.17746 0.545297C3.02345 0.433888 2.80743 0.398395 2.80743 0.398395L0.521262 0.412198C0.521262 0.412198 0.178236 0.422057 0.0522271 0.568959C-0.0597811 0.700086 0.0432264 0.970227 0.0432264 0.970227C0.0432264 0.970227 1.83336 5.09827 3.85951 7.17954C5.71864 9.0873 7.8288 8.96208 7.8288 8.96208H8.78487C8.78487 8.96208 9.07389 8.93054 9.2209 8.77377C9.35691 8.62983 9.35191 8.35969 9.35191 8.35969C9.35191 8.35969 9.33291 7.09475 9.92895 6.90842C10.516 6.72504 11.2701 8.13095 12.0691 8.67222C12.6732 9.08138 13.1322 8.99166 13.1322 8.99166L15.2693 8.96208C15.2693 8.96208 16.3874 8.89406 15.8574 8.02743Z" fill="#2D383F"/></g></symbol></svg>